<?xml version="1.0" encoding="UTF-8"?>
<svg version="1.1" xmlns="http://www.w3.org/2000/svg" width="1254" height="1254">

<defs>
    <linearGradient id="cyanGradient" x1="0%" y1="0%" x2="100%" y2="100%" gradientUnits="userSpaceOnUse">
        <stop offset="0%" stop-color="#5FE9FF" />
        <stop offset="100%" stop-color="#2596D7" />
    </linearGradient>
    <linearGradient id="indigoGradient" x1="0%" y1="0%" x2="100%" y2="100%" gradientUnits="userSpaceOnUse">
        <stop offset="0%" stop-color="#6A63ED" />
        <stop offset="100%" stop-color="#3D33CF" />
    </linearGradient>
</defs>

<path fill="url(#cyanGradient)" stroke="url(#cyanGradient)" stroke-width="1.5" stroke-linejoin="round" d="M0 0 C1.9180033 -0.00570949 3.8360032 -0.01267598 5.7539978 -0.02079773 C10.94231319 -0.03868455 16.13045901 -0.03756865 21.31879592 -0.03185534 C25.66224985 -0.02875566 30.00567158 -0.03486491 34.34912091 -0.04089409 C44.60500781 -0.05492431 54.86081138 -0.05339177 65.11669922 -0.04199219 C75.66629295 -0.03052459 86.21563204 -0.0445673 96.76519221 -0.07138866 C105.84837378 -0.09360984 114.9314758 -0.10016826 124.01468259 -0.09431225 C129.42815168 -0.09095533 134.84145778 -0.09327261 140.25490379 -0.11056328 C145.35140966 -0.12613187 150.44754143 -0.12196778 155.54403305 -0.10325813 C157.40346904 -0.0995989 159.26293336 -0.10260186 161.12234306 -0.11314392 C188.04697536 -0.25401431 210.85990474 9.18058092 230.14379883 27.96655273 C236.85888639 34.74484112 242.19635081 42.29371594 247.50805664 50.18774414 C250.08027934 53.96127964 252.77111821 57.64797593 255.45629883 61.34155273 C256.5489271 62.85053674 257.6413746 64.35965166 258.73364258 65.86889648 C259.27617676 66.61768066 259.81871094 67.36646484 260.37768555 68.13793945 C263.09528056 71.89050073 265.80674355 75.64748693 268.51879883 79.40405273 C269.60210244 80.9040742 270.68543579 82.40407419 271.76879883 83.90405273 C278.26879883 92.90405274 278.26879883 92.90405274 279.89404297 95.15454102 C280.97637231 96.6530508 282.05889157 98.15142343 283.14160156 99.6496582 C285.86687727 103.42135125 288.5887112 107.19544251 291.30395508 110.97436523 C296.49481141 118.19182579 301.72056187 125.37411458 307.08129883 132.46655273 C312.30465024 139.3790262 317.31394561 146.42828782 322.28833008 153.52124023 C325.09708698 157.52494651 327.96332401 161.48414592 330.85083008 165.43139648 C333.07687171 168.4836806 335.28600391 171.54768736 337.49365234 174.61328125 C342.62791231 181.74077958 347.7987148 188.83915181 353.01879883 195.90405273 C361.12076385 206.87195015 369.11809092 217.9142059 377.02172852 229.02587891 C380.46286086 233.86353971 383.94243429 238.66474448 387.51879883 243.40405273 C391.53352462 248.72426628 395.41789566 254.12971506 399.28051758 259.56030273 C405.93183395 268.90889325 412.60618399 278.24642353 419.51879883 287.40405273 C423.41849883 292.57935555 427.26352109 297.79300768 431.08129883 303.02905273 C431.6665332 303.8244043 432.25176758 304.61975586 432.85473633 305.43920898 C433.39485352 306.18299805 433.9349707 306.92678711 434.49145508 307.69311523 C435.22247437 308.6939917 435.22247437 308.6939917 435.96826172 309.71508789 C437.01879883 311.40405273 437.01879883 311.40405273 437.01879883 313.40405273 C441.38523689 309.32817247 444.76256904 304.83385541 448.20629883 299.96655273 C448.77799805 299.16668945 449.34969727 298.36682617 449.9387207 297.54272461 C451.63628702 295.16613176 453.32792692 292.78541096 455.01879883 290.40405273 C456.29095188 288.62067335 457.56457063 286.83834959 458.83837891 285.05615234 C459.6291974 283.94933358 460.41939345 282.84206983 461.20898438 281.734375 C465.18011999 276.16553696 469.18943841 270.62444939 473.19799805 265.08251953 C476.93637039 259.91126972 480.64898958 254.72242956 484.34863281 249.5234375 C487.38569034 245.26589746 490.47751296 241.05060494 493.58129883 236.84155273 C501.9482618 226.02183399 501.9482618 226.02183399 509.01879883 214.40405273 C509.67879883 214.40405273 510.33879883 214.40405273 511.01879883 214.40405273 C511.28692383 213.85233398 511.55504883 213.30061523 511.83129883 212.73217773 C513.14676467 210.15317234 514.55729045 207.65323206 516.01879883 205.15405273 C516.53442383 204.26202148 517.05004883 203.36999023 517.58129883 202.45092773 C518.29286133 201.43772461 518.29286133 201.43772461 519.01879883 200.40405273 C519.67879883 200.40405273 520.33879883 200.40405273 521.01879883 200.40405273 C521.24567383 199.72213867 521.47254883 199.04022461 521.70629883 198.33764648 C523.34542943 194.67399445 525.60993581 191.64646737 528.01879883 188.46655273 C529.0065375 187.14159777 529.99349754 185.81606203 530.97973633 184.48999023 C531.48214844 183.81677734 531.98456055 183.14356445 532.50219727 182.44995117 C534.91898481 179.18970011 537.28478433 175.89373938 539.64379883 172.59155273 C540.28188477 171.70318726 540.28188477 171.70318726 540.93286133 170.796875 C543.14668543 167.70602619 543.14668543 167.70602619 545.01879883 164.40405273 C545.67879883 164.40405273 546.33879883 164.40405273 547.01879883 164.40405273 C547.13094727 163.81881836 547.2430957 163.23358398 547.35864258 162.63061523 C548.0833729 160.18625852 549.01756701 158.78165207 550.58129883 156.77905273 C551.38954102 155.73297852 551.38954102 155.73297852 552.21411133 154.66577148 C553.4487072 153.11851821 554.69405649 151.57980097 555.94848633 150.04858398 C560.04241064 145.03870385 563.63292809 139.96277147 567.03442383 134.46264648 C569.85075198 130.12173124 572.93243667 125.99355845 576.02172852 121.84448242 C579.16089804 117.61741698 582.11970993 113.3215758 584.89770508 108.84545898 C585.26766602 108.36979492 585.63762695 107.89413086 586.01879883 107.40405273 C586.67879883 107.40405273 587.33879883 107.40405273 588.01879883 107.40405273 C588.24825195 106.71827148 588.47770508 106.03249023 588.71411133 105.32592773 C590.31974493 101.73007763 592.52728362 98.7708256 594.89379883 95.65405273 C595.88869358 94.32176757 596.88212848 92.98839128 597.87426758 91.65405273 C598.39037598 90.96053711 598.90648437 90.26702148 599.43823242 89.55249023 C602.08239949 85.95831813 604.64349032 82.30646295 607.20629883 78.65405273 C614.61234404 68.12314332 622.21855527 57.7455608 629.87451172 47.39526367 C633.67318236 42.25627156 633.67318236 42.25627156 637.38208008 37.05249023 C641.67739447 30.94092066 646.27290915 25.23203057 652.01879883 20.40405273 C652.67879883 20.40405273 653.33879883 20.40405273 654.01879883 20.40405273 C654.01879883 19.74405273 654.01879883 19.08405273 654.01879883 18.40405273 C656.40374792 16.69403213 658.77322251 15.12549994 661.26879883 13.59155273 C661.99736084 13.14158936 662.72592285 12.69162598 663.4765625 12.22802734 C669.41602251 8.63255956 675.40935839 5.58525039 682.01879883 3.40405273 C682.69256278 3.15845014 683.36632673 2.91284754 684.06050777 2.65980244 C693.31317736 -0.33651595 702.48934325 -0.01112302 712.10107422 0.03173828 C714.01748349 0.02930674 715.93389149 0.02558391 717.85029602 0.02067566 C723.02790539 0.01131336 728.20532418 0.02065245 733.3829186 0.03400779 C738.81545472 0.04537121 744.24798213 0.04121105 749.68052673 0.03926086 C758.80023287 0.03837951 767.91986445 0.04942576 777.03955078 0.06787109 C787.56704606 0.08904259 798.09443223 0.09254625 808.62194449 0.08630913 C818.77153651 0.08060494 828.9210903 0.08627318 839.0706768 0.09748268 C843.38023018 0.10211403 847.68976008 0.10300888 851.99931526 0.10089684 C857.07767741 0.09900645 862.15592927 0.10717539 867.23426628 0.12295723 C869.09257425 0.12718179 870.95089344 0.12806301 872.8092041 0.12526703 C892.08665849 0.10067277 907.07474587 2.87365225 921.64379883 16.52905273 C933.35120799 28.64652877 936.42534524 42.03514272 936.15551758 58.41967773 C935.49563216 77.65062423 924.63890306 91.92808501 913.73217773 107.01586914 C911.23015263 110.50330282 908.8103101 114.04459518 906.39379883 117.59155273 C902.26569987 123.62152049 898.06957296 129.60038331 893.84594727 135.5637207 C888.88997848 142.5686403 883.99348927 149.61442674 879.09790039 156.66162109 C874.02368138 163.96444776 868.92925184 171.25284454 863.82495117 178.53466797 C860.62297037 183.10490217 857.43678619 187.68519366 854.26879883 192.27905273 C848.85169891 200.11932858 843.29065138 207.85578752 837.72583008 215.59155273 C831.69792539 223.98524112 825.79491815 232.46297242 819.90307617 240.95263672 C815.55680651 247.20981047 811.16007984 253.42440576 806.71411133 259.61108398 C802.37607686 265.68399306 798.14637519 271.83415065 793.90161133 277.97241211 C790.65974432 282.65042621 787.38509154 287.29716596 784.02661133 291.89233398 C779.9295941 297.49864722 775.96588705 303.19156763 772.01879883 308.90405273 C765.10524862 318.9097963 757.9977633 328.75447236 750.74462891 338.51635742 C745.63957568 345.39434964 740.67610016 352.29927192 735.99145508 359.47045898 C733.23604674 363.56810584 730.29942556 367.52217517 727.36352539 371.49145508 C722.31128004 378.33325345 717.42254115 385.28694296 712.53491211 392.24682617 C710.03536575 395.80334656 707.52674122 399.35345046 705.01879883 402.90405273 C702.02721688 407.14001996 699.03701049 411.37691891 696.05395508 415.61889648 C690.94647839 422.87640325 685.79839293 430.09988099 680.58129883 437.27905273 C675.43804027 444.36126878 670.4651707 451.54757314 665.54467773 458.78588867 C662.14797964 463.77598456 658.67441901 468.6937087 655.09692383 473.55639648 C648.20751144 482.99696346 641.54166542 492.604952 634.89379883 502.21655273 C634.43255615 502.88001709 633.97131348 503.54348145 633.49609375 504.22705078 C631.44993829 507.19792222 629.49754467 510.10595104 628.01879883 513.40405273 C628.86442383 514.29866211 629.71004883 515.19327148 630.58129883 516.11499023 C652.01792299 538.90703989 667.58206632 564.59416918 682.83911133 591.76733398 C685.83198937 597.09013384 688.88467109 602.37640899 691.95629883 607.65405273 C696.51261481 615.49863825 700.94688432 623.38442445 705.10864258 631.44702148 C710.4151581 641.69142188 716.04855247 651.68643802 721.90649414 661.62597656 C725.71730384 668.11278221 729.36066778 674.65316763 732.83422852 681.32568359 C735.81148779 687.04403195 738.92308922 692.67919841 742.06958008 698.3059082 C746.01858882 705.37664491 749.88733859 712.49019072 753.73291016 719.61767578 C756.59876134 724.90157357 759.59160852 730.08379895 762.70629883 735.22485352 C764.16583182 737.64817783 765.55090626 740.10177987 766.89379883 742.59155273 C767.39524414 743.51838867 767.89668945 744.44522461 768.41333008 745.40014648 C769.52090281 747.47246627 770.62208241 749.54821126 771.71801758 751.62670898 C775.73511834 759.23140918 779.88943722 766.74176562 784.14379883 774.21655273 C788.83866677 782.47132563 793.41223891 790.78160931 797.89379883 799.15405273 C804.00474212 810.56907575 810.2527383 821.90067719 816.56567383 833.20483398 C818.61745206 836.87898736 820.65494227 840.5593611 822.65942383 844.25952148 C830.52118113 858.73150072 839.40099212 872.55716793 848.22583008 886.45483398 C849.21956716 888.02108323 850.21306296 889.58748559 851.20629883 891.15405273 C851.68736084 891.91218262 852.16842285 892.6703125 852.6640625 893.45141602 C856.79748703 899.99327617 860.7689745 906.62701688 864.73046875 913.27392578 C868.62018483 919.78359834 872.67215599 926.16382295 876.80444336 932.52270508 C879.2152851 936.25771643 881.58397608 940.01950527 883.95629883 943.77905273 C884.46805664 944.58995361 884.97981445 945.40085449 885.50708008 946.23632812 C889.09794105 951.93192122 892.66982194 957.63917658 896.23388672 963.3515625 C901.94319955 972.49620705 907.71403313 981.6022063 913.47924805 990.71166992 C914.93042286 993.0046539 916.38100891 995.29800897 917.83129883 997.59155273 C918.31695313 998.35927002 918.80260742 999.1269873 919.30297852 999.91796875 C922.13724447 1004.40463927 924.95440211 1008.90148189 927.75708008 1013.40795898 C929.05249632 1015.49008772 930.34807 1017.57211851 931.64379883 1019.65405273 C932.59851074 1021.18811768 932.59851074 1021.18811768 933.57250977 1022.75317383 C937.52832498 1029.08595716 941.59726763 1035.32179008 945.79125977 1041.49853516 C948.74651702 1045.89048078 951.31979445 1050.41007845 953.76879883 1055.09936523 C954.86980646 1057.12934806 956.05113115 1058.96741244 957.39379883 1060.84155273 C959.01879883 1063.40405273 959.01879883 1063.40405273 959.01879883 1067.40405273 C959.67879883 1067.40405273 960.33879883 1067.40405273 961.01879883 1067.40405273 C966.37097115 1084.24905938 966.71335896 1099.27251625 959.20629883 1115.71655273 C952.21934185 1128.39558663 941.155243 1139.13911648 927.11719418 1143.25473309 C916.95620051 1145.64269695 907.24821 1145.82369677 896.85888672 1145.77636719 C894.96985169 1145.77880057 893.08081795 1145.78252516 891.19178772 1145.78742981 C886.10079292 1145.79676831 881.00999276 1145.78747266 875.91901326 1145.77409768 C870.56624307 1145.76270386 865.21348136 1145.76689683 859.86070251 1145.7688446 C850.87406268 1145.76972516 841.88749861 1145.75869779 832.90087891 1145.74023438 C822.5443992 1145.71907694 812.18803044 1145.715557 801.83153349 1145.72179633 C791.82771675 1145.72751229 781.82393866 1145.72181769 771.82012749 1145.71062279 C767.58169266 1145.70600562 763.34328169 1145.70509037 759.10484505 1145.70720863 C754.10358011 1145.70910722 749.10242635 1145.70086825 744.10118675 1145.68514824 C742.27722763 1145.6809445 740.45325715 1145.68002809 738.62929535 1145.68283844 C725.01154289 1145.70062116 711.15600509 1145.60010204 698.26879883 1140.65405273 C697.55618896 1140.38947266 696.8435791 1140.12489258 696.109375 1139.85229492 C681.80855869 1134.3941905 667.36923396 1125.73261241 658.01879883 1113.40405273 C657.33430664 1112.56487305 656.64981445 1111.72569336 655.94458008 1110.86108398 C649.40428125 1102.67760264 643.64786364 1094.00111153 637.90380859 1085.24584961 C634.0890759 1079.44254044 630.1443498 1073.77816422 626.0324707 1068.18188477 C622.51815873 1063.33394083 619.18253607 1058.3654578 615.83129883 1053.40405273 C614.71089617 1051.75088917 613.59049094 1050.09772732 612.46972656 1048.44480896 C611.35466798 1046.80014286 610.24019708 1045.15507838 609.12573242 1043.51000977 C606.14291896 1039.11286575 603.14578137 1034.72562485 600.14379883 1030.34155273 C599.35767212 1029.1933606 599.35767212 1029.1933606 598.55566406 1028.02197266 C593.38650696 1020.47592997 588.20407435 1012.93902485 583.01879883 1005.40405273 C574.44160283 992.94011858 565.89269924 980.45703135 557.3527832 967.9675293 C551.30872216 959.12871147 545.26192161 950.29189948 539.18896484 941.47290039 C536.69225152 937.8453521 534.2044844 934.21193794 531.72583008 930.57202148 C524.81003256 920.39977799 524.81003256 920.39977799 517.64379883 910.40405273 C515.16517438 907.04241833 512.85786752 903.6330376 510.64379883 900.09155273 C508.03295379 895.92243307 505.27312663 891.89068286 502.39379883 887.90405273 C496.64566676 879.94330635 491.12569602 871.8318088 485.59741211 863.7175293 C483.24720468 860.27327233 480.88347195 856.83838684 478.51879883 853.40405273 C475.1351569 848.48619002 471.75549265 843.56564239 468.38476562 838.63891602 C467.30743713 837.06564856 466.2281711 835.49370612 465.14697266 833.9230957 C462.09159125 829.47587339 459.09038966 824.99978329 456.13989258 820.48217773 C455.48472656 819.4910498 454.82956055 818.49992188 454.15454102 817.47875977 C452.8880878 815.56130516 451.63407699 813.63555378 450.39477539 811.70043945 C446.76544527 806.24042958 443.23641245 801.90569498 437.01879883 799.40405273 C432.65062434 798.72843127 429.30000862 798.86309749 425.20629883 800.59155273 C420.07811734 804.8406174 416.6079448 810.81273463 412.89379883 816.27905273 C412.03165771 817.5432605 412.03165771 817.5432605 411.15209961 818.83300781 C407.28860005 824.50809277 403.46893232 830.21108762 399.67285156 835.93139648 C396.37325567 840.89498142 393.00598064 845.8094114 389.62036133 850.71459961 C385.18072231 857.1526911 380.78699169 863.62171633 376.39379883 870.09155273 C371.33161709 877.54404081 366.25693365 884.985798 361.11645508 892.38452148 C354.80566179 901.46877328 348.53802675 910.58113349 342.39379883 919.77905273 C341.96784424 920.41568848 341.54188965 921.05232422 341.10302734 921.70825195 C338.92082604 924.97316446 338.92082604 924.97316446 337.01879883 928.40405273 C336.35879883 928.40405273 335.69879883 928.40405273 335.01879883 928.40405273 C334.75325195 929.12987549 334.48770508 929.85569824 334.21411133 930.60351562 C333.01428748 933.41462251 331.62284134 935.69724147 329.89379883 938.21264648 C329.27448486 939.11772949 328.6551709 940.0228125 328.01708984 940.95532227 C327.35765381 941.90777832 326.69821777 942.86023438 326.01879883 943.84155273 C325.00547485 945.31664307 325.00547485 945.31664307 323.97167969 946.8215332 C319.83486798 952.82751987 315.63967831 958.78814108 311.37402344 964.703125 C308.17954419 969.14253616 305.1421126 973.67298069 302.12817383 978.23608398 C299.27304298 982.52406754 296.3500066 986.76368769 293.42602539 991.00488281 C290.41462866 995.37324803 287.41514419 999.74944095 284.42456055 1004.13208008 C278.21005027 1013.23768034 271.92556742 1022.29266796 265.61865234 1031.33447266 C261.65957449 1037.01894482 257.77411848 1042.73858968 253.96020508 1048.52124023 C251.6006669 1052.02494079 249.15580775 1055.46292945 246.70629883 1058.90405273 C241.63473558 1066.03073761 236.7150303 1073.25528826 231.82192993 1080.50491333 C199.56677612 1128.25568011 199.56677612 1128.25568011 170.01879883 1140.40405273 C169.2530957 1140.72116211 168.48739258 1141.03827148 167.69848633 1141.36499023 C155.10853139 1146.05718746 141.40355296 1145.69570011 128.1784668 1145.6628418 C126.32397322 1145.665558 124.46948072 1145.66912244 122.61499023 1145.67346191 C117.61927776 1145.68251212 112.6236487 1145.67907267 107.62793493 1145.67270374 C102.37785985 1145.66760684 97.12779146 1145.67234524 91.87771606 1145.67547607 C83.06682058 1145.67910438 74.25595873 1145.67434584 65.44506836 1145.66479492 C55.28280154 1145.65390581 45.12061495 1145.65744387 34.95835006 1145.66844773 C26.20380561 1145.67754496 17.44928521 1145.6787942 8.69473755 1145.67357039 C3.47876873 1145.67046494 -1.73716246 1145.67000212 -6.95312881 1145.67664337 C-11.8567045 1145.68245198 -16.7601774 1145.67835603 -21.66374207 1145.66685486 C-23.45510056 1145.66422728 -25.24646781 1145.66494052 -27.03782272 1145.66938019 C-45.86395129 1145.71171098 -61.62348414 1143.94592048 -75.99291992 1130.52514648 C-84.88539105 1120.9768315 -89.57688583 1108.5451189 -89.41870117 1095.59155273 C-89.41112793 1094.71644043 -89.40355469 1093.84132813 -89.39575195 1092.93969727 C-89.10661489 1081.52405965 -85.26899883 1072.78123075 -78.98120117 1063.40405273 C-78.28148193 1062.36039551 -78.28148193 1062.36039551 -77.56762695 1061.2956543 C-71.81779268 1052.74807592 -65.9656988 1044.28407978 -59.86010742 1035.98608398 C-55.23325392 1029.62776764 -50.83173228 1023.10563468 -46.38745117 1016.61889648 C-38.42848468 1005.00798217 -30.34863218 993.48600963 -22.14282227 982.0480957 C-17.68643113 975.83545629 -13.3131185 969.57133791 -8.99853516 963.25927734 C-5.36599407 957.94601864 -1.67703442 952.67342952 2.01879883 947.40405273 C3.12713821 945.81960368 4.23521553 944.23497128 5.34301758 942.65014648 C23.27786231 917.00405745 23.27786231 917.00405745 31.84936523 905.05859375 C36.23338431 898.9482477 40.52660105 892.782463 44.77294922 886.57568359 C48.14513739 881.65409571 51.56939473 876.77177357 55.01879883 871.90405273 C58.8231252 866.5308755 62.60241373 861.1423948 66.33129883 855.71655273 C66.76434326 855.08749023 67.1973877 854.45842773 67.64355469 853.81030273 C70.44634423 849.72766155 73.21556368 845.62365886 75.97192383 841.50952148 C76.652146 840.49913818 77.33236816 839.48875488 78.03320312 838.44775391 C79.38417385 836.44005906 80.72952429 834.42856936 82.06884766 832.41308594 C82.68268311 831.50260498 83.29651855 830.59212402 83.92895508 829.65405273 C84.47688721 828.83420898 85.02481934 828.01436523 85.58935547 827.16967773 C86.06107178 826.58702148 86.53278809 826.00436523 87.01879883 825.40405273 C87.67879883 825.40405273 88.33879883 825.40405273 89.01879883 825.40405273 C89.09485352 824.87166992 89.1709082 824.33928711 89.24926758 823.79077148 C90.31501849 820.48532067 92.28432646 817.97330877 94.33129883 815.21655273 C95.2485299 813.95654674 96.16517158 812.69611153 97.08129883 811.43530273 C97.5634082 810.77530273 98.04551758 810.11530273 98.54223633 809.43530273 C101.00256691 806.05072099 103.41836078 802.63501454 105.83129883 799.21655273 C106.32404297 798.51933105 106.81678711 797.82210937 107.32446289 797.10375977 C111.86275057 790.66311737 116.31341883 784.16344792 120.74267578 777.64746094 C121.25789795 776.89037842 121.77312012 776.1332959 122.30395508 775.35327148 C122.75649658 774.68642334 123.20903809 774.0195752 123.67529297 773.33251953 C124.34032837 772.37792847 124.34032837 772.37792847 125.01879883 771.40405273 C125.52854248 770.6626001 126.03828613 769.92114746 126.56347656 769.15722656 C127.28386108 768.28940552 127.28386108 768.28940552 128.01879883 767.40405273 C128.67879883 767.40405273 129.33879883 767.40405273 130.01879883 767.40405273 C130.24825195 766.72858398 130.47770508 766.05311523 130.71411133 765.35717773 C132.36488606 761.62069361 134.5483248 758.48537097 136.89379883 755.15405273 C137.37921143 754.45658936 137.86462402 753.75912598 138.36474609 753.04052734 C139.91018856 750.82416444 141.46342315 748.61345393 143.01879883 746.40405273 C143.5126709 745.70103027 144.00654297 744.99800781 144.51538086 744.27368164 C147.50204586 740.02437758 150.50005954 735.78320227 153.50268555 731.54516602 C156.51051061 727.29740019 159.50969868 723.04353024 162.50976562 718.7902832 C165.0549107 715.18289268 167.60375588 711.57821639 170.15942383 707.97827148 C174.5014201 701.85577854 178.83420665 695.74042888 182.95629883 689.46655273 C186.85489362 683.55368396 191.006751 677.83808605 195.16870117 672.10961914 C199.09365446 666.70243618 202.92816288 661.24556362 206.71411133 655.73999023 C212.66153732 647.10493661 218.74701062 638.5624469 224.85986328 630.04394531 C229.1916901 624.00640215 233.4364532 617.91567479 237.63452148 611.78442383 C246.2385249 599.23006058 255.0222716 586.79950611 263.8112793 574.37426758 C267.63965592 568.95645996 271.42036162 563.50718022 275.17895508 558.04077148 C277.01879883 555.40405273 277.01879883 555.40405273 278.82739258 553.29858398 C280.23800956 551.50149684 280.23800956 551.50149684 279.77099609 549.48876953 C278.91635725 547.12013561 277.93719224 545.94003819 276.17504883 544.15405273 C275.59311768 543.55246338 275.01118652 542.95087402 274.41162109 542.33105469 C273.78698975 541.69514404 273.1623584 541.0592334 272.51879883 540.40405273 C266.99627121 534.62876515 262.01395414 528.74053961 257.35180664 522.23901367 C255.09284906 519.12943031 252.77014208 516.06781058 250.45751953 512.99804688 C244.57189887 505.18525702 238.73182227 497.344187 233.01879883 489.40405273 C230.91555479 486.48672011 228.81108913 483.57026992 226.70629883 480.65405273 C226.14467041 479.87586182 225.58304199 479.0976709 225.00439453 478.29589844 C218.6065805 469.4380241 212.14716538 460.62610486 205.64379883 451.84545898 C199.51783044 443.56723765 193.46584117 435.25029089 187.5559082 426.81640625 C183.23083311 420.66231574 178.77651364 414.60862495 174.30224609 408.5625 C170.3203932 403.17908745 166.37253957 397.77287875 162.45629883 392.34155273 C161.92617188 391.60662598 161.39604492 390.87169922 160.84985352 390.11450195 C158.11759777 386.32376734 155.39085564 382.5291212 152.66723633 378.73217773 C147.83501518 372.00568644 142.99596292 365.30410263 137.89379883 358.77905273 C134.10642458 353.90513669 130.52095696 348.92421909 127.01879883 343.84155273 C126.54941895 343.16205566 126.08003906 342.48255859 125.59643555 341.7824707 C123.50931993 338.72510347 121.62734992 335.74590903 120.01879883 332.40405273 C119.35879883 332.40405273 118.69879883 332.40405273 118.01879883 332.40405273 C116.78442383 330.66577148 116.78442383 330.66577148 115.26879883 328.09155273 C111.84618361 322.54677317 108.09396484 317.31934458 104.20629883 312.09155273 C99.97230044 306.39417795 95.75475058 300.69103911 91.64379883 294.90405273 C85.83477669 286.73558499 79.93308886 278.63927192 73.97851562 270.57641602 C68.86001564 263.64413487 63.76344276 256.70045335 58.77270508 249.67553711 C55.42324722 244.96128393 52.03611299 240.27503845 48.64379883 235.59155273 C44.41210405 229.74684129 40.22562032 223.87348912 36.08129883 217.96655273 C31.8100893 211.88273539 27.44372048 205.8769109 23.01879883 199.90405273 C18.08743687 193.24759012 13.24978952 186.53579281 8.49194336 179.75439453 C4.29318634 173.77441008 0.02357338 167.84775846 -4.26220703 161.92993164 C-7.56240837 157.372015 -10.84396612 152.80170376 -14.10620117 148.21655273 C-17.48031616 143.47620666 -20.90372467 138.77508792 -24.35620117 134.09155273 C-28.74995339 128.12976424 -33.03752989 122.09998715 -37.27832031 116.02856445 C-39.98918433 112.16513556 -42.7534239 108.3555947 -45.60620117 104.59545898 C-59.76353393 85.9133866 -67.20700884 70.63866786 -64.55151367 46.49780273 C-61.93109758 30.58120127 -51.98585687 18.31730243 -39.16088867 8.86499023 C-35.88008213 6.66602671 -32.61799201 4.93189421 -28.98120117 3.40405273 C-28.34861735 3.13578139 -27.71603354 2.86751005 -27.06428051 2.59110928 C-18.27897061 -0.55910427 -9.2010652 -0.02476562 0 0 Z " transform="translate(191.981201171875,54.595947265625)"/><path fill="url(#indigoGradient)" stroke="url(#indigoGradient)" stroke-width="1.5" stroke-linejoin="round" d="M0 0 C3.49170384 1.98496485 6.67109455 4.22331044 9.85620117 6.66674805 C46.71085182 34.75607451 92.10502172 42.99897331 137.51523209 43.19923019 C140.02803765 43.21133604 142.54069419 43.23086106 145.05343628 43.25234985 C152.18775142 43.31289301 159.32204691 43.36746048 166.45654297 43.40136719 C196.08347743 43.54991046 224.85039943 45.2150674 254 51 C254.71381836 51.1345459 255.42763672 51.2690918 256.16308594 51.40771484 C308.71668263 61.44761504 358.19999312 91.10376981 396.98046875 127.2265625 C399.16603655 129.25808793 401.40614229 131.21082283 403.671875 133.15234375 C408.52857447 137.3854741 413.07511815 141.92467474 417.6184082 146.48803711 C419.06025221 147.93524385 420.50737116 149.37702026 421.95507812 150.81835938 C427.18348981 156.04302205 432.1955217 161.38386156 437 167 C438.47534536 168.62847017 439.9539343 170.25401517 441.4375 171.875 C445.01957959 175.84839921 448.40962541 179.92293702 451.71875 184.125 C453.45115832 186.30830911 455.19966932 188.47172503 456.96875 190.625 C462.95163843 197.91197892 468.78267605 205.27444709 474.40039062 212.84692383 C478.27490016 218.06236496 482.24612241 223.19587165 486.25 228.3125 C490.5050764 233.75646969 494.67299033 239.23630194 498.6953125 244.85546875 C501.97665925 249.3325605 505.37127453 253.72117103 508.75 258.125 C514.70439224 265.90174514 520.4631804 273.78032233 526.06640625 281.8125 C529.73828913 287.07474461 533.5077625 292.26559304 537.27270508 297.46142578 C540.6646451 302.14472911 544.02855705 306.84661743 547.375 311.5625 C550.05851538 315.3439863 552.79728307 319.06030979 555.6875 322.6875 C561.34824499 329.86309224 565.95519705 337.7668871 570.4453125 345.7109375 C571.96464887 348.12150186 571.96464887 348.12150186 574.30859375 350.19921875 C577.87499538 353.91055397 580.30101452 358.03686573 582.9375 362.4375 C584.08332515 364.31980865 585.23050715 366.20129187 586.37890625 368.08203125 C586.97074707 369.05350098 587.56258789 370.0249707 588.17236328 371.02587891 C591.18449583 375.92753516 594.27798684 380.7766822 597.375 385.625 C597.9330835 386.49954834 598.49116699 387.37409668 599.06616211 388.27514648 C601.30655436 391.78455118 603.54789179 395.29334607 605.79174805 398.80053711 C609.28164445 404.26632727 612.7074502 409.76315845 616.0625 415.3125 C620.7794006 423.07208245 625.6284808 430.74154131 630.51904297 438.39257812 C634.95434542 445.33772437 639.33114462 452.31760897 643.6875 459.3125 C650.72792752 470.60744401 657.8131981 481.87731242 665.3125 492.875 C668.04047714 496.92372688 670.32216725 501.17479409 672.609375 505.484375 C673.76760568 507.57960129 674.98267898 509.49609464 676.375 511.4375 C678 514 678 514 678 518 C678.66 518 679.32 518 680 518 C685.35217232 534.84500664 685.69456014 549.86846351 678.1875 566.3125 C671.20054303 578.99153389 660.13644417 589.73506374 646.09839535 593.85068035 C635.93740168 596.23864421 626.22941117 596.41964403 615.84008789 596.37231445 C613.95105286 596.37474783 612.06201912 596.37847242 610.17298889 596.38337708 C605.08199409 596.39271557 599.99119393 596.38341993 594.90021443 596.37004495 C589.54744424 596.35865113 584.19468254 596.36284409 578.84190369 596.36479187 C569.85526385 596.36567243 560.86869979 596.35464505 551.88208008 596.33618164 C541.52560037 596.3150242 531.16923161 596.31150427 520.81273466 596.3177436 C510.80891792 596.32345956 500.80513983 596.31776496 490.80132866 596.30657005 C486.56289383 596.30195289 482.32448286 596.30103763 478.08604622 596.3031559 C473.08478128 596.30505449 468.08362752 596.29681552 463.08238792 596.2810955 C461.2584288 596.27689177 459.43445832 596.27597535 457.61049652 596.27878571 C443.99274406 596.29656843 430.13720626 596.19604931 417.25 591.25 C416.53739014 590.98541992 415.82478027 590.72083984 415.09057617 590.44824219 C400.78975986 584.99013776 386.35043513 576.32855967 377 564 C376.31550781 563.16082031 375.63101563 562.32164062 374.92578125 561.45703125 C368.38548242 553.27354991 362.62906481 544.5970588 356.88500977 535.84179688 C353.07027707 530.0384877 349.12555097 524.37411149 345.01367188 518.77783203 C341.4993599 513.92988809 338.16373725 508.96140506 334.8125 504 C333.69209734 502.34683644 332.57169211 500.69367458 331.45092773 499.04075623 C330.33586916 497.39609013 329.22139825 495.75102565 328.10693359 494.10595703 C325.12412013 489.70881301 322.12698254 485.32157212 319.125 480.9375 C318.60091553 480.17203857 318.07683105 479.40657715 317.53686523 478.61791992 C312.36770813 471.07187724 307.18527552 463.53497212 302 456 C293.422804 443.53606584 284.87390041 431.05297862 276.33398438 418.56347656 C270.28992333 409.72465874 264.24312279 400.88784675 258.17016602 392.06884766 C255.67345269 388.44129937 253.18568557 384.80788521 250.70703125 381.16796875 C243.79123373 370.99572526 243.79123373 370.99572526 236.625 361 C234.14637555 357.6383656 231.83906869 354.22898487 229.625 350.6875 C227.01415496 346.51838033 224.2543278 342.48663012 221.375 338.5 C215.62686793 330.53925362 210.10689719 322.42775606 204.57861328 314.31347656 C202.22840585 310.86921959 199.86467312 307.43433411 197.5 304 C194.11635808 299.08213729 190.73669382 294.16158966 187.3659668 289.23486328 C186.2886383 287.66159583 185.20937228 286.08965339 184.12817383 284.51904297 C181.07279242 280.07182066 178.07159083 275.59573056 175.12109375 271.078125 C174.46592773 270.08699707 173.81076172 269.09586914 173.13574219 268.07470703 C171.86928897 266.15725243 170.61527816 264.23150105 169.37597656 262.29638672 C165.74664644 256.83637684 162.21761362 252.50164224 156 250 C151.63182552 249.32437853 148.2812098 249.45904475 144.1875 251.1875 C139.05931851 255.43656466 135.58914598 261.40868189 131.875 266.875 C131.30023926 267.71780518 130.72547852 268.56061035 130.13330078 269.42895508 C126.26980122 275.10404003 122.4501335 280.80703489 118.65405273 286.52734375 C115.35445685 291.49092868 111.98718181 296.40535866 108.6015625 301.31054688 C104.16192348 307.74863836 99.76819287 314.21766359 95.375 320.6875 C90.31281827 328.13998808 85.23813482 335.58174526 80.09765625 342.98046875 C73.78686296 352.06472054 67.51922792 361.17708075 61.375 370.375 C60.94904541 371.01163574 60.52309082 371.64827148 60.08422852 372.30419922 C57.90202721 375.56911173 57.90202721 375.56911173 56 379 C55.34 379 54.68 379 54 379 C53.73445313 379.72582275 53.46890625 380.45164551 53.1953125 381.19946289 C51.99548865 384.01056978 50.60404251 386.29318874 48.875 388.80859375 C48.25568604 389.71367676 47.63637207 390.61875977 46.99829102 391.55126953 C46.00913696 392.97995361 46.00913696 392.97995361 45 394.4375 C43.98667603 395.91259033 43.98667603 395.91259033 42.95288086 397.41748047 C38.81606915 403.42346714 34.62087948 409.38408835 30.35522461 415.29907227 C27.16074536 419.73848342 24.12331377 424.26892795 21.109375 428.83203125 C18.25424415 433.1200148 15.33120777 437.35963495 12.40722656 441.60083008 C9.39582983 445.96919529 6.39634536 450.34538822 3.40576172 454.72802734 C-2.80874856 463.8336276 -9.09323141 472.88861523 -15.40014648 481.93041992 C-19.35922434 487.61489209 -23.24468035 493.33453694 -27.05859375 499.1171875 C-29.41813193 502.62088806 -31.86299108 506.05887672 -34.3125 509.5 C-39.38406325 516.62668488 -44.30376852 523.85123553 -49.1968689 531.1008606 C-81.45202271 578.85162737 -81.45202271 578.85162737 -111 591 C-111.76570313 591.31710937 -112.53140625 591.63421875 -113.3203125 591.9609375 C-125.91026744 596.65313473 -139.61524586 596.29164737 -152.84033203 596.25878906 C-154.69482561 596.26150526 -156.5493181 596.2650697 -158.40380859 596.26940918 C-163.39952106 596.27845939 -168.39515013 596.27501993 -173.3908639 596.26865101 C-178.64093898 596.26355411 -183.89100737 596.26829251 -189.14108276 596.27142334 C-197.95197825 596.27505165 -206.7628401 596.2702931 -215.57373047 596.26074219 C-225.73599729 596.24985308 -235.89818388 596.25339114 -246.06044877 596.264395 C-254.81499322 596.27349222 -263.56951362 596.27474146 -272.32406127 596.26951766 C-277.5400301 596.2664122 -282.75596129 596.26594938 -287.97192764 596.27259064 C-292.87550333 596.27839925 -297.77897623 596.2743033 -302.68254089 596.26280212 C-304.47389938 596.26017455 -306.26526664 596.26088778 -308.05662155 596.26532745 C-326.88275012 596.30765825 -342.64228297 594.54186775 -357.01171875 581.12109375 C-365.90418987 571.57277877 -370.59568466 559.14106617 -370.4375 546.1875 C-370.42992676 545.3123877 -370.42235352 544.43727539 -370.41455078 543.53564453 C-370.12541372 532.12000692 -366.28779766 523.37717801 -360 514 C-359.30028076 512.95634277 -359.30028076 512.95634277 -358.58642578 511.89160156 C-352.83659151 503.34402319 -346.98449763 494.88002705 -340.87890625 486.58203125 C-336.25205275 480.2237149 -331.85053111 473.70158195 -327.40625 467.21484375 C-319.44728351 455.60392944 -311.367431 444.0819569 -303.16162109 432.64404297 C-298.70522996 426.43140355 -294.33191733 420.16728518 -290.01733398 413.85522461 C-286.3847929 408.54196591 -282.69583325 403.26937679 -279 398 C-277.89166061 396.41555095 -276.7835833 394.83091854 -275.67578125 393.24609375 C-257.74093652 367.60000471 -257.74093652 367.60000471 -249.16943359 355.65454102 C-244.78541452 349.54419497 -240.49219778 343.37841026 -236.24584961 337.17163086 C-232.87366144 332.25004298 -229.4494041 327.36772084 -226 322.5 C-222.19567363 317.12682277 -218.4163851 311.73834207 -214.6875 306.3125 C-214.25445557 305.6834375 -213.82141113 305.054375 -213.37524414 304.40625 C-210.5724546 300.32360881 -207.80323515 296.21960612 -205.046875 292.10546875 C-204.36665283 291.09508545 -203.68643066 290.08470215 -202.9855957 289.04370117 C-201.63462498 287.03600633 -200.28927453 285.02451662 -198.94995117 283.0090332 C-198.33611572 282.09855225 -197.72228027 281.18807129 -197.08984375 280.25 C-196.54191162 279.43015625 -195.99397949 278.6103125 -195.42944336 277.765625 C-194.95772705 277.18296875 -194.48601074 276.6003125 -194 276 C-193.34 276 -192.68 276 -192 276 C-191.92394531 275.46761719 -191.84789062 274.93523437 -191.76953125 274.38671875 C-190.70378033 271.08126794 -188.73447237 268.56925604 -186.6875 265.8125 C-185.77026893 264.552494 -184.85362725 263.29205879 -183.9375 262.03125 C-183.45539063 261.37125 -182.97328125 260.71125 -182.4765625 260.03125 C-180.01623192 256.64666825 -177.60043805 253.2309618 -175.1875 249.8125 C-174.69475586 249.11527832 -174.20201172 248.41805664 -173.69433594 247.69970703 C-169.15604825 241.25906463 -164.70538 234.75939518 -160.27612305 228.2434082 C-159.76090088 227.48632568 -159.24567871 226.72924316 -158.71484375 225.94921875 C-158.26230225 225.28237061 -157.80976074 224.61552246 -157.34350586 223.9284668 C-156.90014893 223.29207275 -156.45679199 222.65567871 -156 222 C-155.49025635 221.25854736 -154.9805127 220.51709473 -154.45532227 219.75317383 C-153.73493774 218.88535278 -153.73493774 218.88535278 -153 218 C-152.34 218 -151.68 218 -151 218 C-150.77054688 217.32453125 -150.54109375 216.6490625 -150.3046875 215.953125 C-148.65391277 212.21664087 -146.47047403 209.08131824 -144.125 205.75 C-143.6395874 205.05253662 -143.1541748 204.35507324 -142.65405273 203.63647461 C-141.10861027 201.4201117 -139.55537568 199.2094012 -138 197 C-137.50612793 196.29697754 -137.01225586 195.59395508 -136.50341797 194.86962891 C-133.51675297 190.62032485 -130.51873929 186.37914954 -127.51611328 182.14111328 C-124.50828822 177.89334746 -121.50910015 173.6394775 -118.5090332 169.38623047 C-115.96388813 165.77883995 -113.41504295 162.17416366 -110.859375 158.57421875 C-106.51737873 152.45172581 -102.18459218 146.33637615 -98.0625 140.0625 C-94.1639052 134.14963123 -90.01204782 128.43403332 -85.85009766 122.70556641 C-81.92514437 117.29838344 -78.09063595 111.84151089 -74.3046875 106.3359375 C-68.35726151 97.70088388 -62.2717882 89.15839416 -56.15893555 80.63989258 C-51.82710873 74.60234942 -47.58234562 68.51162205 -43.38427734 62.38037109 C-35.26319334 50.53065026 -26.98006317 38.7925958 -18.6875 27.0625 C-12.35857535 18.10964135 -6.06334554 9.13562107 0 0 Z " transform="translate(473,604)"/><path fill="url(#indigoGradient)" stroke="url(#indigoGradient)" stroke-width="1.5" stroke-linejoin="round" d="M0 0 C1.91640927 -0.00243154 3.83281727 -0.00615437 5.7492218 -0.01106262 C10.92683117 -0.02042492 16.10424996 -0.01108583 21.28184438 0.00226951 C26.7143805 0.01363292 32.14690791 0.00947277 37.57945251 0.00752258 C46.69915865 0.00664123 55.81879023 0.01768748 64.93847656 0.03613281 C75.46597184 0.0573043 85.99335801 0.06080797 96.52087027 0.05457085 C106.67046229 0.04886666 116.82001608 0.0545349 126.96960258 0.0657444 C131.27915597 0.07037575 135.58868586 0.0712706 139.89824104 0.06915855 C144.97660319 0.06726817 150.05485506 0.07543711 155.13319206 0.09121895 C156.99150003 0.09544351 158.84981922 0.09632473 160.70812988 0.09352875 C179.98558427 0.06893449 194.97367165 2.84191397 209.54272461 16.49731445 C221.25013377 28.61479049 224.32427102 42.00340444 224.05444336 58.38793945 C223.39455794 77.61888595 212.53782884 91.89634673 201.63110352 106.98413086 C199.12907841 110.47156454 196.70923589 114.0128569 194.29272461 117.55981445 C190.16462565 123.58978221 185.96849874 129.56864503 181.74487305 135.53198242 C176.78890426 142.53690202 171.89241505 149.58268846 166.99682617 156.62988281 C161.92260716 163.93270948 156.82817762 171.22110626 151.72387695 178.50292969 C148.52189616 183.07316389 145.33571197 187.65345537 142.16772461 192.24731445 C136.75062469 200.0875903 131.18957716 207.82404924 125.62475586 215.55981445 C119.59685117 223.95350284 113.69384394 232.43123414 107.80200195 240.92089844 C103.45573229 247.17807218 99.05900563 253.39266748 94.61303711 259.5793457 C90.27500264 265.65225478 86.04530097 271.80241236 81.80053711 277.94067383 C78.5586701 282.61868792 75.28401732 287.26542768 71.92553711 291.8605957 C67.82851988 297.46690894 63.86481284 303.15982934 59.91772461 308.87231445 C53.0041744 318.87805802 45.89668908 328.72273408 38.64355469 338.48461914 C33.53850146 345.36261135 28.57502594 352.26753364 23.89038086 359.4387207 C21.13497252 363.53636756 18.19835135 367.49043689 15.26245117 371.4597168 C10.21020583 378.30151517 5.32146693 385.25520468 0.43383789 392.21508789 C-2.06570846 395.77160828 -4.574333 399.32171218 -7.08227539 402.87231445 C-10.07385734 407.10828168 -13.06406373 411.34518063 -16.04711914 415.5871582 C-21.15459583 422.84466497 -26.30268129 430.0681427 -31.51977539 437.24731445 C-36.66303394 444.3295305 -41.63590352 451.51583485 -46.55639648 458.75415039 C-49.95309458 463.74424628 -53.4266552 468.66197042 -57.00415039 473.5246582 C-59.67023014 477.17798929 -62.28533467 480.8658933 -64.89477539 484.55981445 C-65.65576538 485.63537598 -65.65576538 485.63537598 -66.43212891 486.73266602 C-69.04379792 490.43614229 -71.62385664 494.15725437 -74.15649414 497.9152832 C-74.89452271 499.00643433 -74.89452271 499.00643433 -75.64746094 500.11962891 C-76.58067017 501.50348435 -77.50824049 502.89116492 -78.42919922 504.28320312 C-80.65944596 507.58788775 -82.67640287 510.24364413 -86.08227539 512.37231445 C-86.6993335 511.77713013 -86.6993335 511.77713013 -87.32885742 511.16992188 C-96.52592624 502.33364741 -105.85325807 493.99109744 -116.08227539 486.37231445 C-117.14720215 485.57857422 -117.14720215 485.57857422 -118.23364258 484.76879883 C-125.47672497 479.38538482 -132.76017454 474.05748359 -140.06274414 468.75512695 C-149.39127983 461.9631685 -158.44801441 455.03082452 -167.08227539 447.37231445 C-167.57743652 446.9335498 -168.07259766 446.49478516 -168.58276367 446.04272461 C-180.28977384 435.62086204 -191.46433042 424.78032995 -201.08227539 412.37231445 C-201.86989258 411.3668457 -202.65750977 410.36137695 -203.46899414 409.32543945 C-208.48147481 402.89128739 -213.32154802 396.33923821 -218.11914062 389.74389648 C-220.66886919 386.2526118 -223.27747793 382.84144117 -226.01977539 379.49731445 C-230.14098104 374.43025832 -233.85064776 369.09842597 -237.59204102 363.74951172 C-241.18671618 358.61692601 -244.88978048 353.58451789 -248.67602539 348.59106445 C-251.69128204 344.58787388 -254.5974488 340.50601401 -257.51977539 336.43481445 C-262.89018468 328.95982783 -268.40959107 321.62003301 -274.08227539 314.37231445 C-270.09770036 308.30696539 -265.97666002 302.36516485 -261.70727539 296.49731445 C-261.13493164 295.70776367 -260.56258789 294.91821289 -259.97290039 294.10473633 C-258.34451743 291.85926254 -256.7139158 289.61542193 -255.08227539 287.37231445 C-254.36813477 286.39004883 -253.65399414 285.4077832 -252.91821289 284.39575195 C-251.68935461 282.70672546 -250.46018545 281.0179251 -249.23071289 279.3293457 C-242.0275447 269.41516694 -234.8582147 259.47699189 -227.75292969 249.49243164 C-224.71575867 245.23461181 -221.62373534 241.01910272 -218.51977539 236.80981445 C-210.15281242 225.99009571 -210.15281242 225.99009571 -203.08227539 214.37231445 C-202.42227539 214.37231445 -201.76227539 214.37231445 -201.08227539 214.37231445 C-200.81415039 213.8205957 -200.54602539 213.26887695 -200.26977539 212.70043945 C-198.95430955 210.12143406 -197.54378377 207.62149378 -196.08227539 205.12231445 C-195.56665039 204.2302832 -195.05102539 203.33825195 -194.51977539 202.41918945 C-194.04540039 201.7437207 -193.57102539 201.06825195 -193.08227539 200.37231445 C-192.42227539 200.37231445 -191.76227539 200.37231445 -191.08227539 200.37231445 C-190.85540039 199.69040039 -190.62852539 199.00848633 -190.39477539 198.3059082 C-188.75564479 194.64225617 -186.49113841 191.61472909 -184.08227539 188.43481445 C-183.09453672 187.10985949 -182.10757668 185.78432375 -181.12133789 184.45825195 C-180.36771973 183.44843262 -180.36771973 183.44843262 -179.59887695 182.41821289 C-177.18208941 179.15796183 -174.81628988 175.8620011 -172.45727539 172.55981445 C-172.03188477 171.9675708 -171.60649414 171.37532715 -171.16821289 170.76513672 C-168.95438879 167.67428791 -168.95438879 167.67428791 -167.08227539 164.37231445 C-166.42227539 164.37231445 -165.76227539 164.37231445 -165.08227539 164.37231445 C-164.97012695 163.78708008 -164.85797852 163.2018457 -164.74243164 162.59887695 C-164.01770132 160.15452024 -163.08350721 158.74991379 -161.51977539 156.74731445 C-160.98094727 156.04993164 -160.44211914 155.35254883 -159.88696289 154.6340332 C-158.65236701 153.08677993 -157.40701773 151.54806269 -156.15258789 150.0168457 C-152.05866358 145.00696557 -148.46814612 139.93103319 -145.06665039 134.4309082 C-142.25032223 130.08999296 -139.16863755 125.96182017 -136.0793457 121.81274414 C-132.94017617 117.5856787 -129.98136429 113.28983752 -127.20336914 108.8137207 C-126.8334082 108.33805664 -126.46344727 107.86239258 -126.08227539 107.37231445 C-125.42227539 107.37231445 -124.76227539 107.37231445 -124.08227539 107.37231445 C-123.85282227 106.6865332 -123.62336914 106.00075195 -123.38696289 105.29418945 C-121.78132929 101.69833934 -119.5737906 98.73908732 -117.20727539 95.62231445 C-116.21238064 94.29002928 -115.21894574 92.956653 -114.22680664 91.62231445 C-113.71069824 90.92879883 -113.19458984 90.2352832 -112.6628418 89.52075195 C-110.01867473 85.92657985 -107.4575839 82.27472466 -104.89477539 78.62231445 C-97.48873018 68.09140503 -89.88251895 57.71382252 -82.2265625 47.36352539 C-78.42789186 42.22453328 -78.42789186 42.22453328 -74.71899414 37.02075195 C-70.42367975 30.90918238 -65.82816506 25.20029229 -60.08227539 20.37231445 C-59.42227539 20.37231445 -58.76227539 20.37231445 -58.08227539 20.37231445 C-58.08227539 19.71231445 -58.08227539 19.05231445 -58.08227539 18.37231445 C-55.6973263 16.66229385 -53.32785171 15.09376166 -50.83227539 13.55981445 C-50.10371338 13.10985107 -49.37515137 12.6598877 -48.62451172 12.19628906 C-42.68505171 8.60082128 -36.69171583 5.55351211 -30.08227539 3.37231445 C-29.40851144 3.12671185 -28.73474749 2.88110926 -28.04056644 2.62806416 C-18.78789686 -0.36825424 -9.61173096 -0.0428613 0 0 Z " transform="translate(904.082275390625,54.627685546875)"/><path fill="url(#indigoGradient)" stroke="url(#indigoGradient)" stroke-width="1.5" stroke-linejoin="round" d="M0 0 C-12.93771074 7.50387223 -26.89994492 7.43146197 -41.39794922 7.34057617 C-43.31131985 7.33972816 -45.22469146 7.34020843 -47.13806152 7.34190369 C-52.29004809 7.34275827 -57.44182164 7.32522015 -62.59375906 7.30418181 C-67.99357595 7.28532481 -73.39339867 7.2836575 -78.79324341 7.28010559 C-88.99970562 7.27081149 -99.2060705 7.24623364 -109.41249001 7.21605712 C-121.04014923 7.18243073 -132.6678133 7.16600645 -144.2955091 7.15097082 C-168.19705986 7.11968155 -192.09852445 7.06697271 -216 7 C-216 6.67 -216 6.34 -216 6 C-215.01178222 5.99668985 -214.02356443 5.99337971 -213.00540066 5.98996925 C-188.96036935 5.90897672 -164.91540184 5.81666163 -140.87045956 5.71247292 C-129.24251051 5.66235021 -117.6145685 5.61590719 -105.98657227 5.578125 C-95.85166978 5.5451849 -85.71682196 5.50534242 -75.58197981 5.45720994 C-70.21563012 5.43196512 -64.84931661 5.4101778 -59.48292351 5.39665604 C-54.43096225 5.3838175 -49.37912516 5.36174355 -44.32723236 5.33261681 C-42.47413285 5.32355509 -40.62101335 5.31785408 -38.76789284 5.31578636 C-36.23472403 5.31245391 -33.70190518 5.29694991 -31.16880798 5.2784729 C-30.07296329 5.281375 -30.07296329 5.281375 -28.95498031 5.28433573 C-21.03713976 5.19819792 -14.1169386 2.37624342 -6.76953125 -0.29296875 C-3.97191959 -1.00716862 -2.66142604 -0.99724078 0 0 Z " transform="translate(1130,1193)"/><path fill="url(#cyanGradient)" stroke="url(#cyanGradient)" stroke-width="1.5" stroke-linejoin="round" d="M0 0 C3.32256015 3.9164114 5.84722177 7.99726142 8.375 12.4375 C13.59164165 21.46009431 19.17476723 30.23262134 24.80078125 39.00390625 C25.33912598 39.84711426 25.8774707 40.69032227 26.43212891 41.55908203 C27.46458877 43.16645259 28.50830221 44.76665875 29.56396484 46.35888672 C30.03141113 47.07447754 30.49885742 47.79006836 30.98046875 48.52734375 C31.39578857 49.1524585 31.8111084 49.77757324 32.23901367 50.42163086 C32.49013916 50.94249268 32.74126465 51.46335449 33 52 C32.505 52.99 32.505 52.99 32 54 C28.460471 50.0559534 25.87935761 46.14146303 23.37109375 41.484375 C18.69323359 33.00825232 13.10856251 25.48170576 7 18 C2.46435321 12.33044151 0 7.39701409 0 0 Z " transform="translate(1016,903)"/><path fill="url(#indigoGradient)" stroke="url(#indigoGradient)" stroke-width="1.5" stroke-linejoin="round" d="M0 0 C-15.24237705 8.84057869 -32.36066867 7.36722885 -49.375 7.1875 C-51.86457524 7.1724264 -54.35415931 7.15874273 -56.84375 7.14648438 C-62.89602831 7.11369025 -68.94797219 7.06370302 -75 7 C-75 6.67 -75 6.34 -75 6 C-74.36408432 5.99191315 -73.72816864 5.98382629 -73.07298279 5.97549438 C-66.43769777 5.88925119 -59.80270471 5.78973921 -53.16772461 5.68261719 C-50.69349074 5.64440008 -48.21920269 5.60953467 -45.74487305 5.578125 C-42.18258335 5.53231697 -38.62066431 5.47434758 -35.05859375 5.4140625 C-33.95728622 5.40251129 -32.8559787 5.39096008 -31.72129822 5.37905884 C-26.09654626 5.27165214 -21.31098168 4.88174334 -16 3 C-14.95457031 2.63519531 -13.90914062 2.27039062 -12.83203125 1.89453125 C-10.8096011 1.16980531 -8.78877295 0.44059402 -6.76953125 -0.29296875 C-3.97191959 -1.00716862 -2.66142604 -0.99724078 0 0 Z " transform="translate(1130,1193)"/><path fill="url(#cyanGradient)" stroke="url(#cyanGradient)" stroke-width="1.5" stroke-linejoin="round" d="M0 0 C0.66 0 1.32 0 2 0 C1.83701416 0.67957764 1.67402832 1.35915527 1.50610352 2.05932617 C0.92388801 5.44224262 0.88773533 8.61780164 0.90234375 12.05078125 C0.9037587 12.70958786 0.90517365 13.36839447 0.90663147 14.04716492 C0.912195 16.13565762 0.92474053 18.22404011 0.9375 20.3125 C0.94251972 21.73502449 0.9470818 23.15755066 0.95117188 24.58007812 C0.96215243 28.05342077 0.97939165 31.52669961 1 35 C-3.50550693 30.49449307 -3.18473082 23.6423198 -3.3125 17.625 C-3.24272043 11.28774649 -2.32666068 5.88589755 0 0 Z " transform="translate(130,95)"/><path fill="url(#cyanGradient)" stroke="url(#cyanGradient)" stroke-width="1.5" stroke-linejoin="round" d="M0 0 C0.66 0 1.32 0 2 0 C2.28875 0.969375 2.5775 1.93875 2.875 2.9375 C3.64214682 6.10664203 3.64214682 6.10664203 6 7 C6.66666667 9 7.33333333 11 8 13 C8.66 13.33 9.32 13.66 10 14 C14.79220779 19.37662338 14.79220779 19.37662338 16 23 C16.66 23.61875 17.32 24.2375 18 24.875 C20.27060644 27.28751935 20.64008575 28.76077175 21 32 C17.1896541 28.37983179 14.07636421 24.61118481 11.0625 20.3125 C10.6308252 19.70108154 10.19915039 19.08966309 9.75439453 18.4597168 C0 4.51418043 0 4.51418043 0 0 Z " transform="translate(133,136)"/><path fill="url(#cyanGradient)" stroke="url(#cyanGradient)" stroke-width="1.5" stroke-linejoin="round" d="M0 0 C0.66 0 1.32 0 2 0 C3.12573242 1.4777832 3.12573242 1.4777832 4.35546875 3.55078125 C4.81018555 4.30746094 5.26490234 5.06414063 5.73339844 5.84375 C6.21325195 6.6584375 6.69310547 7.473125 7.1875 8.3125 C8.17472838 9.96547303 9.16300917 11.61781796 10.15234375 13.26953125 C10.63558105 14.0785791 11.11881836 14.88762695 11.61669922 15.72119141 C13.95020285 19.56533594 16.44287705 23.30042277 18.953125 27.03125 C19.29859375 27.6809375 19.6440625 28.330625 20 29 C19.67 29.66 19.34 30.32 19 31 C15.46963262 27.06616207 12.88635936 23.16703747 10.39453125 18.515625 C5.8865955 10.25395445 5.8865955 10.25395445 0 3 C0 2.01 0 1.02 0 0 Z " transform="translate(1029,926)"/><path fill="url(#indigoGradient)" stroke="url(#indigoGradient)" stroke-width="1.5" stroke-linejoin="round" d="M0 0 C-7.47098954 4.0750852 -14.38247434 6.44192439 -23 6 C-22.67 5.34 -22.34 4.68 -22 4 C-19.93819224 3.41756843 -17.84831607 2.9328365 -15.75 2.5 C-10.93698755 1.49893871 -10.93698755 1.49893871 -6.328125 -0.15625 C-3.71439109 -1.10350927 -2.56590414 -0.95033487 0 0 Z " transform="translate(1130,1193)"/><path fill="url(#indigoGradient)" stroke="url(#indigoGradient)" stroke-width="1.5" stroke-linejoin="round" d="M0 0 C0.99 0.33 1.98 0.66 3 1 C2.40832031 1.7734375 1.81664062 2.546875 1.20703125 3.34375 C-3.14439664 9.07940046 -7.30927486 14.80910622 -11 21 C-11.33 20.01 -11.66 19.02 -12 18 C-10.66518711 15.56957741 -9.30132006 13.34704276 -7.75 11.0625 C-7.34136719 10.44181641 -6.93273437 9.82113281 -6.51171875 9.18164062 C-4.43485571 6.04631201 -2.29900072 2.97825094 0 0 Z " transform="translate(841,532)"/><path fill="url(#indigoGradient)" stroke="url(#indigoGradient)" stroke-width="1.5" stroke-linejoin="round" d="M0 0 C0.33 0 0.66 0 1 0 C1.33786247 9.27244773 1.09424624 17.14087832 -2 26 C-4 24 -4 24 -4.01171875 22.125 C-3.90472656 21.42375 -3.79773437 20.7225 -3.6875 20 C-3.58824219 19.29875 -3.48898437 18.5975 -3.38671875 17.875 C-3 16 -3 16 -2 14 C-1.34 14 -0.68 14 0 14 C0 9.38 0 4.76 0 0 Z " transform="translate(1156,1137)"/><path fill="url(#indigoGradient)" stroke="url(#indigoGradient)" stroke-width="1.5" stroke-linejoin="round" d="M0 0 C1.14583407 1.14583407 2.2910195 2.2923216 3.43359375 3.44140625 C4.54059434 4.54288564 5.65895658 5.63300206 6.78515625 6.71484375 C10.09486541 9.92617515 12.86263196 12.85099146 15 17 C13.125 16.8125 13.125 16.8125 11 16 C9.75 13.4375 9.75 13.4375 9 11 C8.34 11 7.68 11 7 11 C7 10.34 7 9.68 7 9 C6.34 9 5.68 9 5 9 C0 3.64285714 0 3.64285714 0 0 Z " transform="translate(901,762)"/><path fill="url(#cyanGradient)" stroke="url(#cyanGradient)" stroke-width="1.5" stroke-linejoin="round" d="M0 0 C0.33 0.99 0.66 1.98 1 3 C-1.85276137 5.93200474 -4.65079784 8.64315404 -8 11 C-8.66 10.34 -9.32 9.68 -10 9 C-8.71142987 7.68445979 -7.41904109 6.37265903 -6.125 5.0625 C-5.04605469 3.96615234 -5.04605469 3.96615234 -3.9453125 2.84765625 C-2 1 -2 1 0 0 Z " transform="translate(151,65)"/><path fill="url(#indigoGradient)" stroke="url(#indigoGradient)" stroke-width="1.5" stroke-linejoin="round" d="M0 0 C4.91935902 4.11619836 9.52647956 8.40410362 14 13 C10.47967572 13 9.5614657 12.29648649 7 10 C7 9.34 7 8.68 7 8 C6.34 8 5.68 8 5 8 C5 7.34 5 6.68 5 6 C4.360625 5.7525 3.72125 5.505 3.0625 5.25 C1 4 1 4 0.37109375 1.921875 C0.24863281 1.28765625 0.12617187 0.6534375 0 0 Z " transform="translate(885,746)"/><path fill="url(#indigoGradient)" stroke="url(#indigoGradient)" stroke-width="1.5" stroke-linejoin="round" d="M0 0 C0.66 0 1.32 0 2 0 C0.49087042 4.98012761 -2.55661849 8.24259942 -6 12 C-7.65 10.35 -9.3 8.7 -11 7 C-9.02 7.99 -9.02 7.99 -7 9 C-4.69900511 6.85769441 -2.98257912 4.97051851 -1.375 2.25 C-0.92125 1.5075 -0.4675 0.765 0 0 Z " transform="translate(825,555)"/><path fill="url(#cyanGradient)" stroke="url(#cyanGradient)" stroke-width="1.5" stroke-linejoin="round" d="M0 0 C6 7.2 6 7.2 6 13 C4.125 12.4375 4.125 12.4375 2 11 C0.55760783 7.10554113 0 4.16477964 0 0 Z " transform="translate(1016,903)"/><path fill="url(#indigoGradient)" stroke="url(#indigoGradient)" stroke-width="1.5" stroke-linejoin="round" d="M0 0 C0.99 0.33 1.98 0.66 3 1 C1.92173635 2.27513763 0.83714481 3.54492569 -0.25 4.8125 C-0.85328125 5.52019531 -1.4565625 6.22789063 -2.078125 6.95703125 C-3.92370398 8.91889671 -5.79945332 10.45669625 -8 12 C-8 9 -8 9 -5.6875 6.5625 C-4.800625 5.716875 -3.91375 4.87125 -3 4 C-1.97186389 2.68824014 -0.95915568 1.3630107 0 0 Z " transform="translate(1143,1177)"/><path fill="url(#indigoGradient)" stroke="url(#indigoGradient)" stroke-width="1.5" stroke-linejoin="round" d="M0 0 C0.66 0.99 1.32 1.98 2 3 C0.02 5.64 -1.96 8.28 -4 11 C-4.99 10.67 -5.98 10.34 -7 10 C-3.535 5.05 -3.535 5.05 0 0 Z " transform="translate(464,617)"/><path fill="url(#indigoGradient)" stroke="url(#indigoGradient)" stroke-width="1.5" stroke-linejoin="round" d="M0 0 C0.66 0.33 1.32 0.66 2 1 C1.4225 1.680625 0.845 2.36125 0.25 3.0625 C-2.19835514 6.25896365 -4.06450515 9.47463438 -6 13 C-6.66 12.34 -7.32 11.68 -8 11 C-5.36 7.37 -2.72 3.74 0 0 Z " transform="translate(647,345)"/><path fill="url(#indigoGradient)" stroke="url(#indigoGradient)" stroke-width="1.5" stroke-linejoin="round" d="M0 0 C4.2742558 1.5830577 6.26531794 4.50568404 9 8 C4.66314164 8 3.0556673 5.91985986 0 3 C0 2.01 0 1.02 0 0 Z " transform="translate(457,588)"/><path fill="url(#cyanGradient)" stroke="url(#cyanGradient)" stroke-width="1.5" stroke-linejoin="round" d="M0 0 C0.66 0 1.32 0 2 0 C0.94124926 3.40312738 -0.00902154 6.01353231 -2 9 C-2.66 9 -3.32 9 -4 9 C-2.25 2.25 -2.25 2.25 0 0 Z " transform="translate(137,80)"/><path fill="url(#indigoGradient)" stroke="url(#indigoGradient)" stroke-width="1.5" stroke-linejoin="round" d="M0 0 C-3.64116773 3.33773709 -7.28607242 3.97864902 -12 5 C-11.67 4.01 -11.34 3.02 -11 2 C-7.24092359 0.37676246 -4.07913787 -0.23994929 0 0 Z " transform="translate(369,1191)"/><path fill="url(#indigoGradient)" stroke="url(#indigoGradient)" stroke-width="1.5" stroke-linejoin="round" d="M0 0 C0.70125 0.721875 1.4025 1.44375 2.125 2.1875 C4.92770745 4.99823813 7.92262792 7.49516226 11 10 C10.01 10.495 10.01 10.495 9 11 C7.6781638 9.92807816 6.36782073 8.84197305 5.0625 7.75 C4.33160156 7.14671875 3.60070312 6.5434375 2.84765625 5.921875 C0.89673666 3.89258866 0.38268221 2.745593 0 0 Z " transform="translate(113,1179)"/><path fill="url(#cyanGradient)" stroke="url(#cyanGradient)" stroke-width="1.5" stroke-linejoin="round" d="M0 0 C2.30874711 2.16614803 4.05290181 4.39206608 5.75 7.0625 C6.19859375 7.75472656 6.6471875 8.44695313 7.109375 9.16015625 C7.40328125 9.76730469 7.6971875 10.37445312 8 11 C7.67 11.66 7.34 12.32 7 13 C0 4.89473684 0 4.89473684 0 0 Z " transform="translate(1041,944)"/><path fill="url(#cyanGradient)" stroke="url(#cyanGradient)" stroke-width="1.5" stroke-linejoin="round" d="M0 0 C0.66 0 1.32 0 2 0 C3.5078125 1.75 3.5078125 1.75 5.125 4 C5.66382813 4.7425 6.20265625 5.485 6.7578125 6.25 C7.16773438 6.8275 7.57765625 7.405 8 8 C5 8 5 8 2.3125 5.6875 C0 3 0 3 0 0 Z " transform="translate(457,584)"/><path fill="url(#cyanGradient)" stroke="url(#cyanGradient)" stroke-width="1.5" stroke-linejoin="round" d="M0 0 C3.91593446 0.78318689 7.36406635 2.39179858 11 4 C8.83032311 4.95465783 7.43671207 5.14401212 5.17578125 4.3984375 C3.4315257 3.64129615 1.71372869 2.82390802 0 2 C0 1.34 0 0.68 0 0 Z " transform="translate(390,62)"/><path fill="url(#indigoGradient)" stroke="url(#indigoGradient)" stroke-width="1.5" stroke-linejoin="round" d="M0 0 C0.33 0.99 0.66 1.98 1 3 C-0.40445835 5.2636564 -2.1967913 7.0208685 -4 9 C-4.33 8.01 -4.66 7.02 -5 6 C-3.59554165 3.7363436 -1.8032087 1.9791315 0 0 Z " transform="translate(203,990)"/><path fill="url(#indigoGradient)" stroke="url(#indigoGradient)" stroke-width="1.5" stroke-linejoin="round" d="M0 0 C4.50802601 1.25805377 7.4912812 2.90407165 11 6 C5.64951939 5.62671065 3.49087093 4.0042343 0 0 Z " transform="translate(806,686)"/><path fill="url(#indigoGradient)" stroke="url(#indigoGradient)" stroke-width="1.5" stroke-linejoin="round" d="M0 0 C0.66 0.66 1.32 1.32 2 2 C0.02 4.97 0.02 4.97 -2 8 C-2.66 7.67 -3.32 7.34 -4 7 C-2.92598892 4.08482708 -2.22189824 2.22189824 0 0 Z " transform="translate(882,474)"/><path fill="url(#cyanGradient)" stroke="url(#cyanGradient)" stroke-width="1.5" stroke-linejoin="round" d="M0 0 C1.32 1.65 2.64 3.3 4 5 C3.01 5.495 3.01 5.495 2 6 C1.67 6.66 1.34 7.32 1 8 C0.01 6.35 -0.98 4.7 -2 3 C-1.34 3 -0.68 3 0 3 C0 2.01 0 1.02 0 0 Z " transform="translate(1022,913)"/><path fill="url(#cyanGradient)" stroke="url(#cyanGradient)" stroke-width="1.5" stroke-linejoin="round" d="M0 0 C2.32472205 2.85306797 3.7508258 5.54074837 5 9 C4.34 9 3.68 9 3 9 C2.67 7.68 2.34 6.36 2 5 C1.34 5 0.68 5 0 5 C-0.5625 3.0625 -0.5625 3.0625 -1 1 C-0.67 0.67 -0.34 0.34 0 0 Z " transform="translate(901,695)"/><path fill="url(#indigoGradient)" stroke="url(#indigoGradient)" stroke-width="1.5" stroke-linejoin="round" d="M0 0 C0.66 0.66 1.32 1.32 2 2 C0.7260411 4.03833424 -0.61061923 6.03852126 -2 8 C-2.66 8 -3.32 8 -4 8 C-2.87548273 5.0280615 -1.77706209 2.66559313 0 0 Z " transform="translate(891,461)"/><path fill="url(#indigoGradient)" stroke="url(#indigoGradient)" stroke-width="1.5" stroke-linejoin="round" d="M0 0 C0.66 1.32 1.32 2.64 2 4 C1.01 4.99 0.02 5.98 -1 7 C-1.99 6.67 -2.98 6.34 -4 6 C-2.68 4.02 -1.36 2.04 0 0 Z " transform="translate(778,162)"/><path fill="url(#cyanGradient)" stroke="url(#cyanGradient)" stroke-width="1.5" stroke-linejoin="round" d="M0 0 C2.5 2.3125 2.5 2.3125 5 5 C5 5.99 5 6.98 5 8 C2.5 5.6875 2.5 5.6875 0 3 C0 2.01 0 1.02 0 0 Z " transform="translate(449,120)"/><path fill="url(#indigoGradient)" stroke="url(#indigoGradient)" stroke-width="1.5" stroke-linejoin="round" d="M0 0 C0.33 1.32 0.66 2.64 1 4 C-0.9375 6.25 -0.9375 6.25 -3 8 C-3.66 7.67 -4.32 7.34 -5 7 C-3.35 4.69 -1.7 2.38 0 0 Z " transform="translate(834,85)"/><path fill="url(#indigoGradient)" stroke="url(#indigoGradient)" stroke-width="1.5" stroke-linejoin="round" d="M0 0 C1.70884005 1.62339805 3.37446717 3.29319053 5 5 C5 5.66 5 6.32 5 7 C3.68 6.67 2.36 6.34 1 6 C0.67 4.02 0.34 2.04 0 0 Z " transform="translate(973,852)"/><path fill="url(#cyanGradient)" stroke="url(#cyanGradient)" stroke-width="1.5" stroke-linejoin="round" d="M0 0 C1.485 0.99 1.485 0.99 3 2 C3 2.99 3 3.98 3 5 C3.99 5.33 4.98 5.66 6 6 C5.01 7.485 5.01 7.485 4 9 C0 3.375 0 3.375 0 0 Z " transform="translate(287,351)"/>
</svg>